# xmcd
#
# Track frame offsets:
#	150
#	16352
#	33786
#	45766
#	59845
#	74724
#	89332
#	104348
#	128503
#	149605
#	164698
#	174685
#	188065
#	202883
#	218935
#
# Disc length: 3108 seconds
#
# Revision: 1
# Processed by: cddbd v1.5.2PL0 Copyright (c) Steve Scherf et al.
# Submitted via: audiograbber 1.83.01
#
DISCID=db0c220f
DTITLE=Karim Kacel - Bluesville
DYEAR=2007
DGENRE=Other
TTITLE0=Bluesville
TTITLE1=Banlieue
TTITLE2=P'tite soeur
TTITLE3=On est un peu fou quand on est musicien
TTITLE4=Les coquelicots
TTITLE5=Va t'en savoir pourquoi
TTITLE6=Syracuse
TTITLE7=Les mots que l'on dit
TTITLE8=Naufrage
TTITLE9=N'arrete pas de rever
TTITLE10=Une autre
TTITLE11=Edith
TTITLE12=Chateau de cartes
TTITLE13=La chanson du kabyle
TTITLE14=Comme tu me manques
EXTD=
EXTT0=
EXTT1=
EXTT2=
EXTT3=
EXTT4=
EXTT5=
EXTT6=
EXTT7=
EXTT8=
EXTT9=
EXTT10=
EXTT11=
EXTT12=
EXTT13=
EXTT14=
PLAYORDER=
